<svg xmlns="http://www.w3.org/2000/svg" viewBox="0 0 100 100" width="92" height="92" role="img" aria-label="wing pattern: eyespots"><g><clipPath id="p6"><path d="M52,42 C68,30 86,34 88,46 C90,58 74,60 62,54 Z"/><path d="M52,56 C66,52 80,58 79,68 C78,77 62,76 55,66 Z"/></clipPath><path d="M52,42 C68,30 86,34 88,46 C90,58 74,60 62,54 Z" fill="rgba(200,176,122,0.34)" stroke="#c8b07a" stroke-width="1.7" stroke-linejoin="round" stroke-linecap="round"/><path d="M52,56 C66,52 80,58 79,68 C78,77 62,76 55,66 Z" fill="rgba(200,176,122,0.34)" stroke="#c8b07a" stroke-width="1.7" stroke-linejoin="round" stroke-linecap="round"/><g clip-path="url(#p6)"><circle cx="76" cy="45" r="7.5" fill="#3a322a"/><circle cx="76" cy="45" r="4.65" fill="#e8a33d" opacity="0.8"/><circle cx="76" cy="45" r="2.25" fill="#20242a"/><circle cx="74.35" cy="43.2" r="0.9750000000000001" fill="#f2f2ee"/><circle cx="70" cy="66" r="6" fill="#3a322a"/><circle cx="70" cy="66" r="3.7199999999999998" fill="#e8a33d" opacity="0.8"/><circle cx="70" cy="66" r="1.7999999999999998" fill="#20242a"/><circle cx="68.68" cy="64.56" r="0.78" fill="#f2f2ee"/></g><g transform="translate(100,0) scale(-1,1)"><clipPath id="p6m"><path d="M52,42 C68,30 86,34 88,46 C90,58 74,60 62,54 Z"/><path d="M52,56 C66,52 80,58 79,68 C78,77 62,76 55,66 Z"/></clipPath><path d="M52,42 C68,30 86,34 88,46 C90,58 74,60 62,54 Z" fill="rgba(200,176,122,0.34)" stroke="#c8b07a" stroke-width="1.7" stroke-linejoin="round" stroke-linecap="round"/><path d="M52,56 C66,52 80,58 79,68 C78,77 62,76 55,66 Z" fill="rgba(200,176,122,0.34)" stroke="#c8b07a" stroke-width="1.7" stroke-linejoin="round" stroke-linecap="round"/><g clip-path="url(#p6m)"><circle cx="76" cy="45" r="7.5" fill="#3a322a"/><circle cx="76" cy="45" r="4.65" fill="#e8a33d" opacity="0.8"/><circle cx="76" cy="45" r="2.25" fill="#20242a"/><circle cx="74.35" cy="43.2" r="0.9750000000000001" fill="#f2f2ee"/><circle cx="70" cy="66" r="6" fill="#3a322a"/><circle cx="70" cy="66" r="3.7199999999999998" fill="#e8a33d" opacity="0.8"/><circle cx="70" cy="66" r="1.7999999999999998" fill="#20242a"/><circle cx="68.68" cy="64.56" r="0.78" fill="#f2f2ee"/></g></g></g><ellipse cx="50" cy="46" rx="4.2" ry="7" fill="#3a322a"/><circle cx="50" cy="37" r="3.4" fill="#3a322a"/><ellipse cx="50" cy="62" rx="3" ry="11" fill="#3a322a"/><path d="M48,34 C45,28 42,25 39,23" fill="none" stroke="#3a322a" stroke-width="1.4" stroke-linejoin="round" stroke-linecap="round"/><path d="M52,34 C55,28 58,25 61,23" fill="none" stroke="#3a322a" stroke-width="1.4" stroke-linejoin="round" stroke-linecap="round"/><circle cx="38.6" cy="22.4" r="1.5" fill="#3a322a"/><circle cx="61.4" cy="22.4" r="1.5" fill="#3a322a"/></svg>
