<svg xmlns="http://www.w3.org/2000/svg" viewBox="0 0 100 100" width="92" height="92" role="img" aria-label="wing pattern: veined"><g><clipPath id="p1"><path d="M52,42 C68,30 86,34 88,46 C90,58 74,60 62,54 Z"/><path d="M52,56 C66,52 80,58 79,68 C78,77 62,76 55,66 Z"/></clipPath><path d="M52,42 C68,30 86,34 88,46 C90,58 74,60 62,54 Z" fill="rgba(200,176,122,0.34)" stroke="#c8b07a" stroke-width="1.7" stroke-linejoin="round" stroke-linecap="round"/><path d="M52,56 C66,52 80,58 79,68 C78,77 62,76 55,66 Z" fill="rgba(200,176,122,0.34)" stroke="#c8b07a" stroke-width="1.7" stroke-linejoin="round" stroke-linecap="round"/><g clip-path="url(#p1)"><path d="M52,44 C68,36 82,36 92,40" fill="none" stroke="rgba(120,100,66,0.85)" stroke-width="1.2" stroke-linejoin="round" stroke-linecap="round"/><path d="M52,45.5 C68,39.2 82,40.4 92,45.2" fill="none" stroke="rgba(120,100,66,0.85)" stroke-width="1.2" stroke-linejoin="round" stroke-linecap="round"/><path d="M52,47 C68,42.4 82,44.8 92,50.4" fill="none" stroke="rgba(120,100,66,0.85)" stroke-width="1.2" stroke-linejoin="round" stroke-linecap="round"/><path d="M52,48.5 C68,45.6 82,49.2 92,55.6" fill="none" stroke="rgba(120,100,66,0.85)" stroke-width="1.2" stroke-linejoin="round" stroke-linecap="round"/><path d="M52,50 C68,48.8 82,53.6 92,60.8" fill="none" stroke="rgba(120,100,66,0.85)" stroke-width="1.2" stroke-linejoin="round" stroke-linecap="round"/><path d="M52,51.5 C68,52 82,58 92,66" fill="none" stroke="rgba(120,100,66,0.85)" stroke-width="1.2" stroke-linejoin="round" stroke-linecap="round"/></g><g transform="translate(100,0) scale(-1,1)"><clipPath id="p1m"><path d="M52,42 C68,30 86,34 88,46 C90,58 74,60 62,54 Z"/><path d="M52,56 C66,52 80,58 79,68 C78,77 62,76 55,66 Z"/></clipPath><path d="M52,42 C68,30 86,34 88,46 C90,58 74,60 62,54 Z" fill="rgba(200,176,122,0.34)" stroke="#c8b07a" stroke-width="1.7" stroke-linejoin="round" stroke-linecap="round"/><path d="M52,56 C66,52 80,58 79,68 C78,77 62,76 55,66 Z" fill="rgba(200,176,122,0.34)" stroke="#c8b07a" stroke-width="1.7" stroke-linejoin="round" stroke-linecap="round"/><g clip-path="url(#p1m)"><path d="M52,44 C68,36 82,36 92,40" fill="none" stroke="rgba(120,100,66,0.85)" stroke-width="1.2" stroke-linejoin="round" stroke-linecap="round"/><path d="M52,45.5 C68,39.2 82,40.4 92,45.2" fill="none" stroke="rgba(120,100,66,0.85)" stroke-width="1.2" stroke-linejoin="round" stroke-linecap="round"/><path d="M52,47 C68,42.4 82,44.8 92,50.4" fill="none" stroke="rgba(120,100,66,0.85)" stroke-width="1.2" stroke-linejoin="round" stroke-linecap="round"/><path d="M52,48.5 C68,45.6 82,49.2 92,55.6" fill="none" stroke="rgba(120,100,66,0.85)" stroke-width="1.2" stroke-linejoin="round" stroke-linecap="round"/><path d="M52,50 C68,48.8 82,53.6 92,60.8" fill="none" stroke="rgba(120,100,66,0.85)" stroke-width="1.2" stroke-linejoin="round" stroke-linecap="round"/><path d="M52,51.5 C68,52 82,58 92,66" fill="none" stroke="rgba(120,100,66,0.85)" stroke-width="1.2" stroke-linejoin="round" stroke-linecap="round"/></g></g></g><ellipse cx="50" cy="46" rx="4.2" ry="7" fill="#3a322a"/><circle cx="50" cy="37" r="3.4" fill="#3a322a"/><ellipse cx="50" cy="62" rx="3" ry="11" fill="#3a322a"/><path d="M48,34 C45,28 42,25 39,23" fill="none" stroke="#3a322a" stroke-width="1.4" stroke-linejoin="round" stroke-linecap="round"/><path d="M52,34 C55,28 58,25 61,23" fill="none" stroke="#3a322a" stroke-width="1.4" stroke-linejoin="round" stroke-linecap="round"/><circle cx="38.6" cy="22.4" r="1.5" fill="#3a322a"/><circle cx="61.4" cy="22.4" r="1.5" fill="#3a322a"/></svg>
