<svg xmlns="http://www.w3.org/2000/svg" viewBox="0 0 100 100" width="92" height="92" role="img" aria-label="wing pattern: mottled"><g><clipPath id="p5"><path d="M52,42 C68,30 86,34 88,46 C90,58 74,60 62,54 Z"/><path d="M52,56 C66,52 80,58 79,68 C78,77 62,76 55,66 Z"/></clipPath><path d="M52,42 C68,30 86,34 88,46 C90,58 74,60 62,54 Z" fill="rgba(200,176,122,0.34)" stroke="#c8b07a" stroke-width="1.7" stroke-linejoin="round" stroke-linecap="round"/><path d="M52,56 C66,52 80,58 79,68 C78,77 62,76 55,66 Z" fill="rgba(200,176,122,0.34)" stroke="#c8b07a" stroke-width="1.7" stroke-linejoin="round" stroke-linecap="round"/><g clip-path="url(#p5)"><ellipse cx="66" cy="38" rx="5" ry="3.5999999999999996" fill="#3a322a" opacity="0.5"/><ellipse cx="80" cy="44" rx="6.5" ry="4.68" fill="#3a322a" opacity="0.5"/><ellipse cx="60" cy="50" rx="4" ry="2.88" fill="#3a322a" opacity="0.5"/><ellipse cx="88" cy="52" rx="4.5" ry="3.2399999999999998" fill="#3a322a" opacity="0.5"/><ellipse cx="70" cy="60" rx="5.5" ry="3.96" fill="#3a322a" opacity="0.5"/><ellipse cx="80" cy="70" rx="5" ry="3.5999999999999996" fill="#3a322a" opacity="0.5"/><ellipse cx="60" cy="68" rx="4" ry="2.88" fill="#3a322a" opacity="0.5"/></g><g transform="translate(100,0) scale(-1,1)"><clipPath id="p5m"><path d="M52,42 C68,30 86,34 88,46 C90,58 74,60 62,54 Z"/><path d="M52,56 C66,52 80,58 79,68 C78,77 62,76 55,66 Z"/></clipPath><path d="M52,42 C68,30 86,34 88,46 C90,58 74,60 62,54 Z" fill="rgba(200,176,122,0.34)" stroke="#c8b07a" stroke-width="1.7" stroke-linejoin="round" stroke-linecap="round"/><path d="M52,56 C66,52 80,58 79,68 C78,77 62,76 55,66 Z" fill="rgba(200,176,122,0.34)" stroke="#c8b07a" stroke-width="1.7" stroke-linejoin="round" stroke-linecap="round"/><g clip-path="url(#p5m)"><ellipse cx="66" cy="38" rx="5" ry="3.5999999999999996" fill="#3a322a" opacity="0.5"/><ellipse cx="80" cy="44" rx="6.5" ry="4.68" fill="#3a322a" opacity="0.5"/><ellipse cx="60" cy="50" rx="4" ry="2.88" fill="#3a322a" opacity="0.5"/><ellipse cx="88" cy="52" rx="4.5" ry="3.2399999999999998" fill="#3a322a" opacity="0.5"/><ellipse cx="70" cy="60" rx="5.5" ry="3.96" fill="#3a322a" opacity="0.5"/><ellipse cx="80" cy="70" rx="5" ry="3.5999999999999996" fill="#3a322a" opacity="0.5"/><ellipse cx="60" cy="68" rx="4" ry="2.88" fill="#3a322a" opacity="0.5"/></g></g></g><ellipse cx="50" cy="46" rx="4.2" ry="7" fill="#3a322a"/><circle cx="50" cy="37" r="3.4" fill="#3a322a"/><ellipse cx="50" cy="62" rx="3" ry="11" fill="#3a322a"/><path d="M48,34 C45,28 42,25 39,23" fill="none" stroke="#3a322a" stroke-width="1.4" stroke-linejoin="round" stroke-linecap="round"/><path d="M52,34 C55,28 58,25 61,23" fill="none" stroke="#3a322a" stroke-width="1.4" stroke-linejoin="round" stroke-linecap="round"/><circle cx="38.6" cy="22.4" r="1.5" fill="#3a322a"/><circle cx="61.4" cy="22.4" r="1.5" fill="#3a322a"/></svg>
