<svg xmlns="http://www.w3.org/2000/svg" viewBox="0 0 100 100" width="92" height="92" role="img" aria-label="leaf shape: compound_pinnate"><path d="M50,94L50,30" fill="none" stroke="#6f9e57" stroke-width="2" stroke-linecap="round"/><g transform="rotate(68 50 78)"><path d="M50,78L52.27,77.5L53.21,77L53.91,76.5L54.47,76L54.94,75.5L55.35,75L55.7,74.5L56,74L56.27,73.5L56.5,73L56.71,72.5L56.88,72L57.03,71.5L57.16,71L57.26,70.5L57.35,70L57.41,69.5L57.46,69L57.49,68.5L57.5,68L57.49,67.5L57.47,67L57.43,66.5L57.38,66L57.31,65.5L57.23,65L57.13,64.5L57.01,64L56.88,63.5L56.74,63L56.57,62.5L56.4,62L56.2,61.5L55.99,61L55.77,60.5L55.52,60L55.26,59.5L54.98,59L54.68,58.5L54.35,58L54,57.5L53.62,57L53.21,56.5L52.77,56L52.27,55.5L51.71,55L51.05,54.5L50,54L50,54L48.95,54.5L48.29,55L47.73,55.5L47.23,56L46.79,56.5L46.38,57L46,57.5L45.65,58L45.32,58.5L45.02,59L44.74,59.5L44.48,60L44.23,60.5L44.01,61L43.8,61.5L43.6,62L43.43,62.5L43.26,63L43.12,63.5L42.99,64L42.87,64.5L42.77,65L42.69,65.5L42.62,66L42.57,66.5L42.53,67L42.51,67.5L42.5,68L42.51,68.5L42.54,69L42.59,69.5L42.65,70L42.74,70.5L42.84,71L42.97,71.5L43.12,72L43.29,72.5L43.5,73L43.73,73.5L44,74L44.3,74.5L44.65,75L45.06,75.5L45.53,76L46.09,76.5L46.79,77L47.73,77.5L50,78Z" fill="rgba(111,158,87,0.30)" stroke="#6f9e57" stroke-width="1.6" stroke-linejoin="round"/><path d="M50,77.52L50,55.2" fill="none" stroke="rgba(111,158,87,0.75)" stroke-width="1.1" stroke-linecap="round"/></g><g transform="rotate(-68 50 78)"><path d="M50,78L52.27,77.5L53.21,77L53.91,76.5L54.47,76L54.94,75.5L55.35,75L55.7,74.5L56,74L56.27,73.5L56.5,73L56.71,72.5L56.88,72L57.03,71.5L57.16,71L57.26,70.5L57.35,70L57.41,69.5L57.46,69L57.49,68.5L57.5,68L57.49,67.5L57.47,67L57.43,66.5L57.38,66L57.31,65.5L57.23,65L57.13,64.5L57.01,64L56.88,63.5L56.74,63L56.57,62.5L56.4,62L56.2,61.5L55.99,61L55.77,60.5L55.52,60L55.26,59.5L54.98,59L54.68,58.5L54.35,58L54,57.5L53.62,57L53.21,56.5L52.77,56L52.27,55.5L51.71,55L51.05,54.5L50,54L50,54L48.95,54.5L48.29,55L47.73,55.5L47.23,56L46.79,56.5L46.38,57L46,57.5L45.65,58L45.32,58.5L45.02,59L44.74,59.5L44.48,60L44.23,60.5L44.01,61L43.8,61.5L43.6,62L43.43,62.5L43.26,63L43.12,63.5L42.99,64L42.87,64.5L42.77,65L42.69,65.5L42.62,66L42.57,66.5L42.53,67L42.51,67.5L42.5,68L42.51,68.5L42.54,69L42.59,69.5L42.65,70L42.74,70.5L42.84,71L42.97,71.5L43.12,72L43.29,72.5L43.5,73L43.73,73.5L44,74L44.3,74.5L44.65,75L45.06,75.5L45.53,76L46.09,76.5L46.79,77L47.73,77.5L50,78Z" fill="rgba(111,158,87,0.30)" stroke="#6f9e57" stroke-width="1.6" stroke-linejoin="round"/><path d="M50,77.52L50,55.2" fill="none" stroke="rgba(111,158,87,0.75)" stroke-width="1.1" stroke-linecap="round"/></g><g transform="rotate(68 50 65)"><path d="M50,65L52.27,64.5L53.21,64L53.91,63.5L54.47,63L54.94,62.5L55.35,62L55.7,61.5L56,61L56.27,60.5L56.5,60L56.71,59.5L56.88,59L57.03,58.5L57.16,58L57.26,57.5L57.35,57L57.41,56.5L57.46,56L57.49,55.5L57.5,55L57.49,54.5L57.47,54L57.43,53.5L57.38,53L57.31,52.5L57.23,52L57.13,51.5L57.01,51L56.88,50.5L56.74,50L56.57,49.5L56.4,49L56.2,48.5L55.99,48L55.77,47.5L55.52,47L55.26,46.5L54.98,46L54.68,45.5L54.35,45L54,44.5L53.62,44L53.21,43.5L52.77,43L52.27,42.5L51.71,42L51.05,41.5L50,41L50,41L48.95,41.5L48.29,42L47.73,42.5L47.23,43L46.79,43.5L46.38,44L46,44.5L45.65,45L45.32,45.5L45.02,46L44.74,46.5L44.48,47L44.23,47.5L44.01,48L43.8,48.5L43.6,49L43.43,49.5L43.26,50L43.12,50.5L42.99,51L42.87,51.5L42.77,52L42.69,52.5L42.62,53L42.57,53.5L42.53,54L42.51,54.5L42.5,55L42.51,55.5L42.54,56L42.59,56.5L42.65,57L42.74,57.5L42.84,58L42.97,58.5L43.12,59L43.29,59.5L43.5,60L43.73,60.5L44,61L44.3,61.5L44.65,62L45.06,62.5L45.53,63L46.09,63.5L46.79,64L47.73,64.5L50,65Z" fill="rgba(111,158,87,0.30)" stroke="#6f9e57" stroke-width="1.6" stroke-linejoin="round"/><path d="M50,64.52L50,42.2" fill="none" stroke="rgba(111,158,87,0.75)" stroke-width="1.1" stroke-linecap="round"/></g><g transform="rotate(-68 50 65)"><path d="M50,65L52.27,64.5L53.21,64L53.91,63.5L54.47,63L54.94,62.5L55.35,62L55.7,61.5L56,61L56.27,60.5L56.5,60L56.71,59.5L56.88,59L57.03,58.5L57.16,58L57.26,57.5L57.35,57L57.41,56.5L57.46,56L57.49,55.5L57.5,55L57.49,54.5L57.47,54L57.43,53.5L57.38,53L57.31,52.5L57.23,52L57.13,51.5L57.01,51L56.88,50.5L56.74,50L56.57,49.5L56.4,49L56.2,48.5L55.99,48L55.77,47.5L55.52,47L55.26,46.5L54.98,46L54.68,45.5L54.35,45L54,44.5L53.62,44L53.21,43.5L52.77,43L52.27,42.5L51.71,42L51.05,41.5L50,41L50,41L48.95,41.5L48.29,42L47.73,42.5L47.23,43L46.79,43.5L46.38,44L46,44.5L45.65,45L45.32,45.5L45.02,46L44.74,46.5L44.48,47L44.23,47.5L44.01,48L43.8,48.5L43.6,49L43.43,49.5L43.26,50L43.12,50.5L42.99,51L42.87,51.5L42.77,52L42.69,52.5L42.62,53L42.57,53.5L42.53,54L42.51,54.5L42.5,55L42.51,55.5L42.54,56L42.59,56.5L42.65,57L42.74,57.5L42.84,58L42.97,58.5L43.12,59L43.29,59.5L43.5,60L43.73,60.5L44,61L44.3,61.5L44.65,62L45.06,62.5L45.53,63L46.09,63.5L46.79,64L47.73,64.5L50,65Z" fill="rgba(111,158,87,0.30)" stroke="#6f9e57" stroke-width="1.6" stroke-linejoin="round"/><path d="M50,64.52L50,42.2" fill="none" stroke="rgba(111,158,87,0.75)" stroke-width="1.1" stroke-linecap="round"/></g><g transform="rotate(68 50 52)"><path d="M50,52L52.27,51.5L53.21,51L53.91,50.5L54.47,50L54.94,49.5L55.35,49L55.7,48.5L56,48L56.27,47.5L56.5,47L56.71,46.5L56.88,46L57.03,45.5L57.16,45L57.26,44.5L57.35,44L57.41,43.5L57.46,43L57.49,42.5L57.5,42L57.49,41.5L57.47,41L57.43,40.5L57.38,40L57.31,39.5L57.23,39L57.13,38.5L57.01,38L56.88,37.5L56.74,37L56.57,36.5L56.4,36L56.2,35.5L55.99,35L55.77,34.5L55.52,34L55.26,33.5L54.98,33L54.68,32.5L54.35,32L54,31.5L53.62,31L53.21,30.5L52.77,30L52.27,29.5L51.71,29L51.05,28.5L50,28L50,28L48.95,28.5L48.29,29L47.73,29.5L47.23,30L46.79,30.5L46.38,31L46,31.5L45.65,32L45.32,32.5L45.02,33L44.74,33.5L44.48,34L44.23,34.5L44.01,35L43.8,35.5L43.6,36L43.43,36.5L43.26,37L43.12,37.5L42.99,38L42.87,38.5L42.77,39L42.69,39.5L42.62,40L42.57,40.5L42.53,41L42.51,41.5L42.5,42L42.51,42.5L42.54,43L42.59,43.5L42.65,44L42.74,44.5L42.84,45L42.97,45.5L43.12,46L43.29,46.5L43.5,47L43.73,47.5L44,48L44.3,48.5L44.65,49L45.06,49.5L45.53,50L46.09,50.5L46.79,51L47.73,51.5L50,52Z" fill="rgba(111,158,87,0.30)" stroke="#6f9e57" stroke-width="1.6" stroke-linejoin="round"/><path d="M50,51.52L50,29.2" fill="none" stroke="rgba(111,158,87,0.75)" stroke-width="1.1" stroke-linecap="round"/></g><g transform="rotate(-68 50 52)"><path d="M50,52L52.27,51.5L53.21,51L53.91,50.5L54.47,50L54.94,49.5L55.35,49L55.7,48.5L56,48L56.27,47.5L56.5,47L56.71,46.5L56.88,46L57.03,45.5L57.16,45L57.26,44.5L57.35,44L57.41,43.5L57.46,43L57.49,42.5L57.5,42L57.49,41.5L57.47,41L57.43,40.5L57.38,40L57.31,39.5L57.23,39L57.13,38.5L57.01,38L56.88,37.5L56.74,37L56.57,36.5L56.4,36L56.2,35.5L55.99,35L55.77,34.5L55.52,34L55.26,33.5L54.98,33L54.68,32.5L54.35,32L54,31.5L53.62,31L53.21,30.5L52.77,30L52.27,29.5L51.71,29L51.05,28.5L50,28L50,28L48.95,28.5L48.29,29L47.73,29.5L47.23,30L46.79,30.5L46.38,31L46,31.5L45.65,32L45.32,32.5L45.02,33L44.74,33.5L44.48,34L44.23,34.5L44.01,35L43.8,35.5L43.6,36L43.43,36.5L43.26,37L43.12,37.5L42.99,38L42.87,38.5L42.77,39L42.69,39.5L42.62,40L42.57,40.5L42.53,41L42.51,41.5L42.5,42L42.51,42.5L42.54,43L42.59,43.5L42.65,44L42.74,44.5L42.84,45L42.97,45.5L43.12,46L43.29,46.5L43.5,47L43.73,47.5L44,48L44.3,48.5L44.65,49L45.06,49.5L45.53,50L46.09,50.5L46.79,51L47.73,51.5L50,52Z" fill="rgba(111,158,87,0.30)" stroke="#6f9e57" stroke-width="1.6" stroke-linejoin="round"/><path d="M50,51.52L50,29.2" fill="none" stroke="rgba(111,158,87,0.75)" stroke-width="1.1" stroke-linecap="round"/></g><g transform="rotate(68 50 39)"><path d="M50,39L52.27,38.5L53.21,38L53.91,37.5L54.47,37L54.94,36.5L55.35,36L55.7,35.5L56,35L56.27,34.5L56.5,34L56.71,33.5L56.88,33L57.03,32.5L57.16,32L57.26,31.5L57.35,31L57.41,30.5L57.46,30L57.49,29.5L57.5,29L57.49,28.5L57.47,28L57.43,27.5L57.38,27L57.31,26.5L57.23,26L57.13,25.5L57.01,25L56.88,24.5L56.74,24L56.57,23.5L56.4,23L56.2,22.5L55.99,22L55.77,21.5L55.52,21L55.26,20.5L54.98,20L54.68,19.5L54.35,19L54,18.5L53.62,18L53.21,17.5L52.77,17L52.27,16.5L51.71,16L51.05,15.5L50,15L50,15L48.95,15.5L48.29,16L47.73,16.5L47.23,17L46.79,17.5L46.38,18L46,18.5L45.65,19L45.32,19.5L45.02,20L44.74,20.5L44.48,21L44.23,21.5L44.01,22L43.8,22.5L43.6,23L43.43,23.5L43.26,24L43.12,24.5L42.99,25L42.87,25.5L42.77,26L42.69,26.5L42.62,27L42.57,27.5L42.53,28L42.51,28.5L42.5,29L42.51,29.5L42.54,30L42.59,30.5L42.65,31L42.74,31.5L42.84,32L42.97,32.5L43.12,33L43.29,33.5L43.5,34L43.73,34.5L44,35L44.3,35.5L44.65,36L45.06,36.5L45.53,37L46.09,37.5L46.79,38L47.73,38.5L50,39Z" fill="rgba(111,158,87,0.30)" stroke="#6f9e57" stroke-width="1.6" stroke-linejoin="round"/><path d="M50,38.52L50,16.2" fill="none" stroke="rgba(111,158,87,0.75)" stroke-width="1.1" stroke-linecap="round"/></g><g transform="rotate(-68 50 39)"><path d="M50,39L52.27,38.5L53.21,38L53.91,37.5L54.47,37L54.94,36.5L55.35,36L55.7,35.5L56,35L56.27,34.5L56.5,34L56.71,33.5L56.88,33L57.03,32.5L57.16,32L57.26,31.5L57.35,31L57.41,30.5L57.46,30L57.49,29.5L57.5,29L57.49,28.5L57.47,28L57.43,27.5L57.38,27L57.31,26.5L57.23,26L57.13,25.5L57.01,25L56.88,24.5L56.74,24L56.57,23.5L56.4,23L56.2,22.5L55.99,22L55.77,21.5L55.52,21L55.26,20.5L54.98,20L54.68,19.5L54.35,19L54,18.5L53.62,18L53.21,17.5L52.77,17L52.27,16.5L51.71,16L51.05,15.5L50,15L50,15L48.95,15.5L48.29,16L47.73,16.5L47.23,17L46.79,17.5L46.38,18L46,18.5L45.65,19L45.32,19.5L45.02,20L44.74,20.5L44.48,21L44.23,21.5L44.01,22L43.8,22.5L43.6,23L43.43,23.5L43.26,24L43.12,24.5L42.99,25L42.87,25.5L42.77,26L42.69,26.5L42.62,27L42.57,27.5L42.53,28L42.51,28.5L42.5,29L42.51,29.5L42.54,30L42.59,30.5L42.65,31L42.74,31.5L42.84,32L42.97,32.5L43.12,33L43.29,33.5L43.5,34L43.73,34.5L44,35L44.3,35.5L44.65,36L45.06,36.5L45.53,37L46.09,37.5L46.79,38L47.73,38.5L50,39Z" fill="rgba(111,158,87,0.30)" stroke="#6f9e57" stroke-width="1.6" stroke-linejoin="round"/><path d="M50,38.52L50,16.2" fill="none" stroke="rgba(111,158,87,0.75)" stroke-width="1.1" stroke-linecap="round"/></g><g transform="rotate(0 50 32)"><path d="M50,32L52.11,31.54L52.99,31.08L53.65,30.63L54.17,30.17L54.61,29.71L54.99,29.25L55.32,28.79L55.6,28.33L55.85,27.88L56.07,27.42L56.26,26.96L56.42,26.5L56.56,26.04L56.68,25.58L56.78,25.13L56.86,24.67L56.92,24.21L56.96,23.75L56.99,23.29L57,22.83L56.99,22.38L56.97,21.92L56.94,21.46L56.89,21L56.82,20.54L56.74,20.08L56.65,19.63L56.54,19.17L56.42,18.71L56.29,18.25L56.14,17.79L55.97,17.33L55.79,16.88L55.6,16.42L55.38,15.96L55.16,15.5L54.91,15.04L54.65,14.58L54.37,14.13L54.06,13.67L53.73,13.21L53.38,12.75L53,12.29L52.58,11.83L52.12,11.38L51.6,10.92L50.98,10.46L50,10L50,10L49.02,10.46L48.4,10.92L47.88,11.38L47.42,11.83L47,12.29L46.62,12.75L46.27,13.21L45.94,13.67L45.63,14.13L45.35,14.58L45.09,15.04L44.84,15.5L44.62,15.96L44.4,16.42L44.21,16.88L44.03,17.33L43.86,17.79L43.71,18.25L43.58,18.71L43.46,19.17L43.35,19.63L43.26,20.08L43.18,20.54L43.11,21L43.06,21.46L43.03,21.92L43.01,22.38L43,22.83L43.01,23.29L43.04,23.75L43.08,24.21L43.14,24.67L43.22,25.13L43.32,25.58L43.44,26.04L43.58,26.5L43.74,26.96L43.93,27.42L44.15,27.88L44.4,28.33L44.68,28.79L45.01,29.25L45.39,29.71L45.83,30.17L46.35,30.63L47.01,31.08L47.89,31.54L50,32Z" fill="rgba(111,158,87,0.30)" stroke="#6f9e57" stroke-width="1.6" stroke-linejoin="round"/><path d="M50,31.56L50,11.1" fill="none" stroke="rgba(111,158,87,0.75)" stroke-width="1.1" stroke-linecap="round"/></g></svg>
