<svg xmlns="http://www.w3.org/2000/svg" viewBox="0 0 100 100" width="92" height="92" role="img" aria-label="leaf shape: orbicular"><path d="M50,96L50,88" fill="none" stroke="#6f9e57" stroke-width="2" stroke-linecap="round"/><path d="M50,88L56.7,87.31L59.43,86.63L61.48,85.94L63.19,85.25L64.66,84.56L65.98,83.88L67.16,83.19L68.24,82.5L69.24,81.81L70.16,81.13L71.02,80.44L71.83,79.75L72.58,79.06L73.29,78.38L73.96,77.69L74.6,77L75.19,76.31L75.76,75.63L76.3,74.94L76.8,74.25L77.28,73.56L77.74,72.88L78.17,72.19L78.58,71.5L78.96,70.81L79.33,70.13L79.67,69.44L80,68.75L80.3,68.06L80.59,67.38L80.86,66.69L81.11,66L81.35,65.31L81.57,64.63L81.77,63.94L81.95,63.25L82.12,62.56L82.28,61.88L82.41,61.19L82.54,60.5L82.65,59.81L82.74,59.13L82.82,58.44L82.89,57.75L82.94,57.06L82.97,56.38L82.99,55.69L83,55L82.99,54.31L82.97,53.63L82.94,52.94L82.89,52.25L82.82,51.56L82.74,50.88L82.65,50.19L82.54,49.5L82.41,48.81L82.28,48.13L82.12,47.44L81.95,46.75L81.77,46.06L81.57,45.38L81.35,44.69L81.11,44L80.86,43.31L80.59,42.63L80.3,41.94L80,41.25L79.67,40.56L79.33,39.88L78.96,39.19L78.58,38.5L78.17,37.81L77.74,37.13L77.28,36.44L76.8,35.75L76.3,35.06L75.76,34.38L75.19,33.69L74.6,33L73.96,32.31L73.29,31.63L72.58,30.94L71.83,30.25L71.02,29.56L70.16,28.88L69.24,28.19L68.24,27.5L67.16,26.81L65.98,26.13L64.66,25.44L63.19,24.75L61.48,24.06L59.43,23.38L56.7,22.69L50,22L50,22L43.3,22.69L40.57,23.38L38.52,24.06L36.81,24.75L35.34,25.44L34.02,26.13L32.84,26.81L31.76,27.5L30.76,28.19L29.84,28.88L28.98,29.56L28.17,30.25L27.42,30.94L26.71,31.63L26.04,32.31L25.4,33L24.81,33.69L24.24,34.38L23.7,35.06L23.2,35.75L22.72,36.44L22.26,37.13L21.83,37.81L21.42,38.5L21.04,39.19L20.67,39.88L20.33,40.56L20,41.25L19.7,41.94L19.41,42.63L19.14,43.31L18.89,44L18.65,44.69L18.43,45.38L18.23,46.06L18.05,46.75L17.88,47.44L17.72,48.13L17.59,48.81L17.46,49.5L17.35,50.19L17.26,50.88L17.18,51.56L17.11,52.25L17.06,52.94L17.03,53.63L17.01,54.31L17,55L17.01,55.69L17.03,56.38L17.06,57.06L17.11,57.75L17.18,58.44L17.26,59.13L17.35,59.81L17.46,60.5L17.59,61.19L17.72,61.88L17.88,62.56L18.05,63.25L18.23,63.94L18.43,64.63L18.65,65.31L18.89,66L19.14,66.69L19.41,67.38L19.7,68.06L20,68.75L20.33,69.44L20.67,70.13L21.04,70.81L21.42,71.5L21.83,72.19L22.26,72.88L22.72,73.56L23.2,74.25L23.7,74.94L24.24,75.63L24.81,76.31L25.4,77L26.04,77.69L26.71,78.38L27.42,79.06L28.17,79.75L28.98,80.44L29.84,81.13L30.76,81.81L31.76,82.5L32.84,83.19L34.02,83.88L35.34,84.56L36.81,85.25L38.52,85.94L40.57,86.63L43.3,87.31L50,88Z" fill="rgba(111,158,87,0.30)" stroke="#6f9e57" stroke-width="1.6" stroke-linejoin="round"/><path d="M50,86.68L50,25.3" fill="none" stroke="rgba(111,158,87,0.75)" stroke-width="1.1" stroke-linecap="round"/></svg>
