<svg xmlns="http://www.w3.org/2000/svg" viewBox="0 0 100 100" width="92" height="92" role="img" aria-label="leaf shape: linear"><path d="M50,96L50,88" fill="none" stroke="#6f9e57" stroke-width="2" stroke-linecap="round"/><path d="M50,88L53.44,87.19L53.94,86.38L54.26,85.56L54.5,84.75L54.7,83.94L54.86,83.13L55,82.31L55.13,81.5L55.24,80.69L55.34,79.88L55.43,79.06L55.51,78.25L55.58,77.44L55.65,76.63L55.72,75.81L55.78,75L55.83,74.19L55.89,73.38L55.94,72.56L55.98,71.75L56.02,70.94L56.06,70.13L56.1,69.31L56.14,68.5L56.17,67.69L56.2,66.88L56.23,66.06L56.26,65.25L56.28,64.44L56.31,63.63L56.33,62.81L56.35,62L56.37,61.19L56.39,60.38L56.4,59.56L56.42,58.75L56.43,57.94L56.44,57.13L56.45,56.31L56.46,55.5L56.47,54.69L56.48,53.88L56.49,53.06L56.49,52.25L56.49,51.44L56.5,50.63L56.5,49.81L56.5,49L56.5,48.19L56.5,47.38L56.49,46.56L56.49,45.75L56.49,44.94L56.48,44.13L56.47,43.31L56.46,42.5L56.45,41.69L56.44,40.88L56.43,40.06L56.42,39.25L56.4,38.44L56.39,37.63L56.37,36.81L56.35,36L56.33,35.19L56.31,34.38L56.28,33.56L56.26,32.75L56.23,31.94L56.2,31.13L56.17,30.31L56.14,29.5L56.1,28.69L56.06,27.88L56.02,27.06L55.98,26.25L55.94,25.44L55.89,24.63L55.83,23.81L55.78,23L55.72,22.19L55.65,21.38L55.58,20.56L55.51,19.75L55.43,18.94L55.34,18.13L55.24,17.31L55.13,16.5L55,15.69L54.86,14.88L54.7,14.06L54.5,13.25L54.26,12.44L53.94,11.63L53.44,10.81L50,10L50,10L46.56,10.81L46.06,11.63L45.74,12.44L45.5,13.25L45.3,14.06L45.14,14.88L45,15.69L44.87,16.5L44.76,17.31L44.66,18.13L44.57,18.94L44.49,19.75L44.42,20.56L44.35,21.38L44.28,22.19L44.22,23L44.17,23.81L44.11,24.63L44.06,25.44L44.02,26.25L43.98,27.06L43.94,27.88L43.9,28.69L43.86,29.5L43.83,30.31L43.8,31.13L43.77,31.94L43.74,32.75L43.72,33.56L43.69,34.38L43.67,35.19L43.65,36L43.63,36.81L43.61,37.63L43.6,38.44L43.58,39.25L43.57,40.06L43.56,40.88L43.55,41.69L43.54,42.5L43.53,43.31L43.52,44.13L43.51,44.94L43.51,45.75L43.51,46.56L43.5,47.38L43.5,48.19L43.5,49L43.5,49.81L43.5,50.63L43.51,51.44L43.51,52.25L43.51,53.06L43.52,53.88L43.53,54.69L43.54,55.5L43.55,56.31L43.56,57.13L43.57,57.94L43.58,58.75L43.6,59.56L43.61,60.38L43.63,61.19L43.65,62L43.67,62.81L43.69,63.63L43.72,64.44L43.74,65.25L43.77,66.06L43.8,66.88L43.83,67.69L43.86,68.5L43.9,69.31L43.94,70.13L43.98,70.94L44.02,71.75L44.06,72.56L44.11,73.38L44.17,74.19L44.22,75L44.28,75.81L44.35,76.63L44.42,77.44L44.49,78.25L44.57,79.06L44.66,79.88L44.76,80.69L44.87,81.5L45,82.31L45.14,83.13L45.3,83.94L45.5,84.75L45.74,85.56L46.06,86.38L46.56,87.19L50,88Z" fill="rgba(111,158,87,0.30)" stroke="#6f9e57" stroke-width="1.6" stroke-linejoin="round"/><path d="M50,86.44L50,13.9" fill="none" stroke="rgba(111,158,87,0.75)" stroke-width="1.1" stroke-linecap="round"/></svg>
